<svg width="107" height="115" viewBox="0 0 107 115" fill="none" xmlns="http://www.w3.org/2000/svg">
<path d="M47.2639 16.4C47.2639 18.9 48.2139 20.95 50.1139 22.55C52.1139 24.05 55.1139 25.75 59.1139 27.65C62.4139 29.25 64.9639 30.65 66.7639 31.85C68.5639 32.95 70.1139 34.45 71.4139 36.35C72.8139 38.25 73.5139 40.5 73.5139 43.1C73.5139 47.4 71.4639 50.85 67.3639 53.45C63.3639 56.05 57.9639 57.35 51.1639 57.35C46.0639 57.35 41.8639 56.45 38.5639 54.65C35.2639 52.75 33.6139 50.3 33.6139 47.3C33.6139 45.3 34.3639 43.65 35.8639 42.35C37.3639 40.95 39.2139 40.25 41.4139 40.25C43.1139 40.25 44.8139 40.6 46.5139 41.3C44.8139 42.6 43.9639 44.7 43.9639 47.6C43.9639 49.6 44.6639 51.15 46.0639 52.25C47.4639 53.35 49.1639 53.9 51.1639 53.9C53.4639 53.9 55.4139 53.3 57.0139 52.1C58.7139 50.9 59.5639 49.2 59.5639 47C59.5639 44.9 58.7139 43.25 57.0139 42.05C55.4139 40.75 52.8639 39.25 49.3639 37.55C46.1639 36.05 43.5639 34.7 41.5639 33.5C39.6639 32.2 38.0139 30.5 36.6139 28.4C35.2139 26.3 34.5139 23.75 34.5139 20.75C34.5139 16.25 36.4139 12.7 40.2139 10.1C44.0139 7.5 48.8139 6.2 54.6139 6.2C59.7139 6.2 63.8639 7.15 67.0639 9.05C70.3639 10.95 72.0139 13.4 72.0139 16.4C72.0139 18.7 71.3139 20.4 69.9139 21.5C68.5139 22.6 66.7139 23.15 64.5139 23.15C62.4139 23.15 60.5639 22.7 58.9639 21.8C60.7639 20.1 61.6639 17.95 61.6639 15.35C61.6639 13.65 61.0139 12.3 59.7139 11.3C58.4139 10.2 56.7139 9.65 54.6139 9.65C52.3139 9.65 50.5139 10.3 49.2139 11.6C47.9139 12.9 47.2639 14.5 47.2639 16.4Z" fill="#A4243B"/>
</svg>
