<svg width="202" height="118" viewBox="0 0 202 118" fill="none" xmlns="http://www.w3.org/2000/svg">
<path d="M19.8713 10.4C19.8713 12.9 20.8213 14.95 22.7213 16.55C24.7213 18.05 27.7213 19.75 31.7213 21.65C35.0213 23.25 37.5713 24.65 39.3713 25.85C41.1713 26.95 42.7213 28.45 44.0213 30.35C45.4213 32.25 46.1213 34.5 46.1213 37.1C46.1213 41.4 44.0713 44.85 39.9713 47.45C35.9713 50.05 30.5713 51.35 23.7713 51.35C18.6713 51.35 14.4713 50.45 11.1713 48.65C7.87129 46.75 6.22129 44.3 6.22129 41.3C6.22129 39.3 6.97129 37.65 8.47129 36.35C9.97129 34.95 11.8213 34.25 14.0213 34.25C15.7213 34.25 17.4213 34.6 19.1213 35.3C17.4213 36.6 16.5713 38.7 16.5713 41.6C16.5713 43.6 17.2713 45.15 18.6713 46.25C20.0713 47.35 21.7713 47.9 23.7713 47.9C26.0713 47.9 28.0213 47.3 29.6213 46.1C31.3213 44.9 32.1713 43.2 32.1713 41C32.1713 38.9 31.3213 37.25 29.6213 36.05C28.0213 34.75 25.4713 33.25 21.9713 31.55C18.7713 30.05 16.1713 28.7 14.1713 27.5C12.2713 26.2 10.6213 24.5 9.22129 22.4C7.82129 20.3 7.12129 17.75 7.12129 14.75C7.12129 10.25 9.02129 6.7 12.8213 4.1C16.6213 1.5 21.4213 0.199997 27.2213 0.199997C32.3213 0.199997 36.4713 1.15 39.6713 3.05C42.9713 4.95 44.6213 7.4 44.6213 10.4C44.6213 12.7 43.9213 14.4 42.5213 15.5C41.1213 16.6 39.3213 17.15 37.1213 17.15C35.0213 17.15 33.1713 16.7 31.5713 15.8C33.3713 14.1 34.2713 11.95 34.2713 9.35C34.2713 7.65 33.6213 6.3 32.3213 5.3C31.0213 4.2 29.3213 3.65 27.2213 3.65C24.9213 3.65 23.1213 4.3 21.8213 5.6C20.5213 6.9 19.8713 8.5 19.8713 10.4Z" fill="#A4243B"/>
<path d="M71.3436 16.85C69.2436 18.05 66.7436 18.65 63.8436 18.65C61.7436 18.65 60.0936 18.05 58.8936 16.85C57.6936 15.55 57.0936 13.75 57.0936 11.45C57.0936 8.05 58.7436 5.35 62.0436 3.35C65.4436 1.25 69.8436 0.199997 75.2436 0.199997C81.6436 0.199997 86.6436 1.6 90.2436 4.4C93.9436 7.2 95.7936 11 95.7936 15.8V41.75C95.7936 44.55 96.7936 45.95 98.7936 45.95C100.694 45.95 102.544 45.2 104.344 43.7L105.544 45.2C101.844 49.3 97.4436 51.35 92.3436 51.35C89.3436 51.35 87.0436 50.6 85.4436 49.1C83.9436 47.6 83.0436 45.25 82.7436 42.05H82.1436C80.5436 44.95 78.3936 47.25 75.6936 48.95C73.0936 50.55 70.0936 51.35 66.6936 51.35C62.8936 51.35 59.8436 50.2 57.5436 47.9C55.2436 45.5 54.0936 42.4 54.0936 38.6C54.0936 34.3 56.1436 30.9 60.2436 28.4C64.3436 25.9 69.8936 24.65 76.8936 24.65C78.1936 24.65 80.0436 24.75 82.4436 24.95V17.45C82.4436 12.55 81.8436 9.05 80.6436 6.95C79.4436 4.75 77.4936 3.65 74.7936 3.65C72.8936 3.65 71.3936 4.25 70.2936 5.45C69.1936 6.65 68.6436 8.2 68.6436 10.1C68.6436 13.1 69.5436 15.35 71.3436 16.85ZM73.5936 43.85C79.4936 43.85 82.4436 38.5 82.4436 27.8C77.4436 27.8 73.6936 28.65 71.1936 30.35C68.6936 31.95 67.4436 34.25 67.4436 37.25C67.4436 39.25 67.9936 40.85 69.0936 42.05C70.1936 43.25 71.6936 43.85 73.5936 43.85Z" fill="#273E47"/>
<path d="M54.3672 95.5C56.5672 95.5 58.2172 95.1 59.3172 94.3C60.4172 93.4 61.2172 91.95 61.7172 89.95L62.9172 84.4L65.9172 85.45V101.2L64.7172 102.4C63.3172 101.5 61.7672 100.85 60.0672 100.45C58.4672 100.15 56.1672 100 53.1672 100H24.8172L23.7672 97L50.3172 55.75H36.5172C34.4172 55.75 32.7672 56.2 31.5672 57.1C30.3672 58 29.5672 59.4 29.1672 61.3L28.1172 66.85L24.9672 65.8V50.05L26.1672 48.85C27.5672 49.75 29.0672 50.4 30.6672 50.8C32.3672 51.1 34.7672 51.25 37.8672 51.25H65.4672C66.7672 52.45 67.4172 53.85 67.4172 55.45L64.7172 56.95L39.9672 95.5H54.3672Z" fill="#D79233"/>
<path d="M73.157 75.85C73.157 67.95 75.407 61.7 79.907 57.1C84.507 52.5 90.707 50.2 98.507 50.2C106.307 50.2 112.507 52.55 117.107 57.25C121.707 61.85 124.007 68.05 124.007 75.85C124.007 83.65 121.707 89.85 117.107 94.45C112.507 99.05 106.307 101.35 98.507 101.35C90.707 101.35 84.507 99.05 79.907 94.45C75.407 89.85 73.157 83.65 73.157 75.85ZM108.857 76.15C108.857 69.45 107.907 64 106.007 59.8C104.107 55.5 101.707 53.35 98.807 53.35C95.607 53.35 93.007 55.45 91.007 59.65C89.007 63.75 88.007 69.15 88.007 75.85C88.007 82.65 88.907 88.05 90.707 92.05C92.607 96.05 95.107 98.05 98.207 98.05C101.307 98.05 103.857 96.05 105.857 92.05C107.857 87.95 108.857 82.65 108.857 76.15ZM105.257 25.9C108.957 27.4 110.807 29.65 110.807 32.65C110.807 36.15 108.607 38.65 104.207 40.15L91.907 44.65L89.957 42.25L105.257 25.9Z" fill="#A4243B"/>
<path d="M183.072 91.45C183.072 94.45 184.022 95.95 185.922 95.95C187.822 95.95 189.672 95.2 191.472 93.7L192.672 95.2C188.972 99.3 184.622 101.35 179.622 101.35C176.022 101.35 173.422 100.45 171.822 98.65C170.322 96.75 169.572 93.7 169.572 89.5V66.55C169.572 60.75 167.722 57.85 164.022 57.85C160.422 57.85 157.472 60.3 155.172 65.2C152.972 70.1 151.872 76.5 151.872 84.4C151.872 87.4 152.122 89.85 152.622 91.75C153.122 93.55 153.922 95.3 155.022 97L156.222 98.5L155.022 100H133.272L132.372 97.45L134.472 97C136.072 96.6 137.122 96 137.622 95.2C138.122 94.3 138.372 92.6 138.372 90.1V60.85C138.372 58.95 137.722 58 136.422 58H131.622L131.172 56.35C133.172 54.65 135.672 53.25 138.672 52.15C141.672 51.05 144.672 50.5 147.672 50.5C148.972 50.5 149.972 50.8 150.672 51.4C151.472 52 151.872 52.8 151.872 53.8V66.7C153.272 62 155.772 58.1 159.372 55C162.972 51.8 166.772 50.2 170.772 50.2C175.072 50.2 178.172 51.6 180.072 54.4C182.072 57.2 183.072 61.65 183.072 67.75V91.45Z" fill="#273E47"/>
</svg>
